Coordinates
version=1
nRows=17
nColumns=23
inDegrees=yes

Units are S.I. units (second, meters, Newtons, ...)
If the header above contains a line with 'inDegrees', this indicates whether rotational values are in degrees (yes) or radians (no).

endheader
time	pelvis_tilt	pelvis_list	pelvis_rotation	pelvis_tx	pelvis_ty	pelvis_tz	hip_flexion_r	hip_adduction_r	hip_rotation_r	knee_angle_r	knee_angle_r_beta	ankle_angle_r	subtalar_angle_r	mtp_angle_r	hip_flexion_l	hip_adduction_l	hip_rotation_l	knee_angle_l	knee_angle_l_beta	ankle_angle_l	subtalar_angle_l	mtp_angle_l
     15.00000000	      0.61836183	    -10.10761231	    -12.53186634	      2.32566687	      0.92068542	      1.04472976	     20.32210152	     16.70983969	      2.78452983	     41.87101687	      0.73078711	     16.55145914	      3.95518528	      0.00000000	     -4.07919557	    -15.54775446	    -21.72092339	     93.85593020	      1.63809500	     -7.24242416	    -25.15792484	      0.00000000
     15.00666667	      0.83583976	    -10.47375615	    -12.68294415	      2.32303494	      0.91725207	      1.04342214	     19.94423670	     16.60885798	      2.26928166	     43.62819516	      0.76145565	     18.36171551	      5.17792799	      0.00000000	     -2.52455483	    -15.84406773	    -20.71496912	     96.23677686	      1.67964862	     -6.54837343	    -24.78828332	      0.00000000
     15.01333333	      1.19024778	    -10.96801393	    -12.68152532	      2.32049929	      0.91488494	      1.04205660	     19.05148675	     16.75383897	      2.23902721	     44.71066190	      0.78034826	     19.86349853	      5.47761046	      0.00000000	     -1.07182100	    -16.27607662	    -19.58021349	     98.33602740	      1.71628745	     -5.97355701	    -24.29896458	      0.00000000
     15.02000000	      1.00591782	    -10.97779623	    -12.63507165	      2.31806541	      0.91230455	      1.04060336	     18.80953658	     16.23939352	      1.61940633	     45.82323366	      0.79976630	     21.40118508	      7.04733524	      0.00000000	      1.24001665	    -16.22784401	    -18.21534349	    100.26297063	      1.74991896	     -5.15367478	    -23.18162806	      0.00000000
     15.02666667	      1.05561454	    -11.14866239	    -12.37999416	      2.31580577	      0.91091737	      1.03913864	     17.98515916	     15.97822361	      1.34141293	     46.31086562	      0.80827708	     22.62055977	      7.71444597	      0.00000000	      3.31919430	    -16.28733827	    -16.68775186	    101.84740451	      1.77757254	     -4.54084488	    -22.07834821	      0.00000000
     15.03333333	      1.17146696	    -11.26099693	    -11.97384443	      2.31379230	      0.91035707	      1.03772952	     16.88315949	     15.71402261	      1.21613125	     46.39773323	      0.80979321	     23.70591994	      8.00350108	      0.00000000	      5.36501530	    -16.25899842	    -15.06741134	    103.08876527	      1.79923838	     -4.02884795	    -20.93091353	      0.00000000
     15.04000000	      1.32471291	    -11.18549017	    -11.70777051	      2.31191807	      0.91059823	      1.03671702	     15.56605616	     15.41169229	      1.52647081	     46.17597450	      0.80592279	     24.51028941	      8.26872479	      0.00000000	      7.28970169	    -15.99009992	    -13.66253814	    103.90482127	      1.81348124	     -3.78020696	    -19.96095555	      0.00000000
     15.04666667	      1.10343804	    -11.07208112	    -10.93398390	      2.31049407	      0.91063416	      1.03537228	     14.66841949	     14.78610752	      0.69862796	     45.85388512	      0.80030127	     25.34724954	      9.18452154	      0.00000000	      9.83831448	    -15.78932941	    -11.79960084	    104.63795379	      1.82627682	     -2.68817293	    -17.79964126	      0.00000000
     15.05333333	      1.09422541	    -10.90924076	    -10.29675346	      2.30933289	      0.91178763	      1.03439608	     13.28615364	     14.35819355	      0.59202922	     45.10863771	      0.78729425	     25.85031705	      9.32737730	      0.00000000	     11.95015578	    -15.44160119	    -10.21546921	    104.86305332	      1.83020554	     -2.12988213	    -16.39192604	      0.00000000
     15.06000000	      1.06327834	    -10.62152810	     -9.65924409	      2.30836767	      0.91338797	      1.03359540	     11.86046725	     13.89214167	      0.62950679	     44.21761445	      0.77174296	     26.28254112	      9.33869272	      0.00000000	     13.99442808	    -14.93722939	     -8.75988173	    104.74132872	      1.82808105	     -1.63601681	    -15.10917945	      0.00000000
     15.06666667	      0.92131850	    -10.31245149	     -9.04230296	      2.30777649	      0.91546770	      1.03296430	     10.41507103	     13.45526241	      0.68538071	     43.07194185	      0.75174720	     26.36812963	      9.39696380	      0.00000000	     16.01571631	    -14.44196838	     -7.45519560	    104.28447828	      1.82010750	     -0.94041054	    -13.77151016	      0.00000000
     15.07333333	      0.79446070	    -10.03564235	     -8.50101702	      2.30748657	      0.91810759	      1.03257181	      8.81869612	     13.12375560	      0.90359711	     41.68923877	      0.72761448	     26.18932799	      9.33562993	      0.00000000	     17.83444890	    -14.03810990	     -6.38168789	    103.49212110	      1.80627826	     -0.12331712	    -12.43895016	      0.00000000
     15.08000000	      0.59000151	     -9.55958582	     -8.02666429	      2.30742625	      0.92113016	      1.03226810	      7.28298568	     12.63943266	      1.26876024	     40.22360362	      0.70203432	     25.86667941	      9.12795993	      0.00000000	     19.57793962	    -13.40159672	     -5.54151275	    102.33658809	      1.78611041	      0.51198857	    -11.58050933	      0.00000000
     15.08666667	      0.59543715	     -9.23505889	     -7.66074592	      2.30767834	      0.92506528	      1.03227200	      5.29404631	     12.47642995	      2.23603270	     38.34947819	      0.66932466	     25.05756974	      8.18483887	      0.00000000	     20.84395755	    -13.02840303	     -4.97872047	    100.81945539	      1.75963145	      1.22061980	    -10.80556990	      0.00000000
     15.09333333	      0.00296514	     -8.51248889	     -7.56273468	      2.30795495	      0.92850578	      1.03239989	      4.18779463	     11.78803039	      2.81677063	     36.89696429	      0.64397351	     24.47553103	      8.45919377	      0.00000000	     22.62569483	    -12.26476289	     -4.73325741	     99.03797069	      1.72853867	      1.81668538	    -10.54962181	      0.00000000
     15.10000000	      0.23398288	     -8.16846628	     -7.03970151	      2.30903111	      0.93360011	      1.03213245	      1.73485872	     11.53772209	      3.73659874	     34.48023410	      0.60179361	     22.64103711	      6.93245387	      0.00000000	     23.33295480	    -11.79620452	     -4.33043601	     96.88322655	      1.69093129	      2.53869354	    -10.34419510	      0.00000000
     15.10666667	      0.01179405	     -7.57221063	     -6.74401277	      2.31010887	      0.93837863	      1.03200473	     -0.06743123	     10.97522246	      4.46914302	     32.32963496	      0.56425858	     20.91611984	      6.23179895	      0.00000000	     24.38071999	    -11.09944437	     -4.17354219	     94.47567101	      1.64891152	      3.16728166	    -10.53254781	      0.00000000
